<?xml version="1.0" standalone="no"?>
<!DOCTYPE svg PUBLIC "-//W3C//DTD SVG 20010904//EN"
 "http://www.w3.org/TR/2001/REC-SVG-20010904/DTD/svg10.dtd">
<svg version="1.0" xmlns="http://www.w3.org/2000/svg"
 width="200.000000pt" height="200.000000pt" viewBox="0 0 200.000000 200.000000"
 preserveAspectRatio="xMidYMid meet">
<metadata>
Created by potrace 1.16, written by Peter Selinger 2001-2019
</metadata>
<g transform="translate(0.000000,200.000000) scale(0.100000,-0.100000)"
fill="#000000" stroke="none">
<path d="M877 1784 c-14 -14 -6 -57 48 -277 30 -122 57 -241 61 -264 4 -24 10
-43 14 -43 4 0 10 19 14 43 4 23 32 143 62 266 30 123 54 235 52 250 l-3 26
-121 3 c-66 1 -123 -1 -127 -4z"/>
<path d="M700 1735 c-93 -40 -150 -76 -150 -94 0 -23 15 -44 150 -206 64 -77
136 -166 160 -197 24 -32 46 -55 48 -53 2 2 -5 43 -17 92 -11 48 -36 166 -56
260 -36 178 -50 223 -69 223 -6 -1 -36 -12 -66 -25z"/>
<path d="M1216 1738 c-8 -13 -31 -102 -51 -198 -20 -96 -45 -215 -56 -263 -12
-49 -19 -90 -17 -92 2 -2 62 68 133 156 206 254 225 279 225 299 0 20 -58 57
-154 96 -33 13 -61 24 -62 24 -2 0 -10 -10 -18 -22z"/>
<path d="M415 1543 c-64 -78 -105 -137 -105 -155 0 -15 27 -32 108 -70 59 -28
176 -84 261 -124 85 -41 156 -72 159 -70 2 3 -16 29 -40 58 -25 29 -100 125
-168 213 -67 88 -129 166 -138 173 -25 19 -45 13 -77 -25z"/>
<path d="M1489 1543 c-20 -21 -73 -87 -119 -148 -46 -60 -113 -145 -148 -188
-35 -43 -62 -80 -59 -83 2 -2 73 29 158 70 85 40 202 96 262 124 72 34 107 56
107 67 0 33 -128 195 -154 195 -7 0 -28 -17 -47 -37z"/>
<path d="M237 1228 c-21 -79 -36 -149 -37 -166 0 -27 53 -32 325 -25 l274 6
-250 124 c-138 67 -260 123 -273 123 -20 0 -25 -9 -39 -62z"/>
<path d="M1445 1164 l-249 -124 120 0 c67 0 195 -3 285 -6 201 -7 204 -6 189
76 -5 30 -17 83 -26 118 -15 56 -19 62 -43 61 -14 0 -138 -56 -276 -125z"/>
<path d="M235 954 c-11 -3 -24 -10 -29 -14 -8 -8 2 -69 30 -177 15 -57 19 -63
43 -63 14 0 139 56 276 125 l250 125 -171 0 c-94 0 -218 2 -275 5 -57 2 -113
2 -124 -1z"/>
<path d="M1405 953 l-210 -3 250 -125 c137 -69 262 -125 276 -125 24 0 28 6
43 63 30 113 39 168 29 178 -13 13 -133 16 -388 12z"/>
<path d="M814 860 c-5 -5 -108 -55 -228 -110 -252 -116 -276 -129 -276 -150 0
-18 51 -92 104 -150 29 -32 43 -40 59 -36 13 3 60 55 112 123 50 65 127 164
173 221 45 57 82 105 82 107 0 9 -16 5 -26 -5z"/>
<path d="M1160 864 c0 -3 25 -35 55 -72 30 -37 107 -137 173 -222 77 -101 126
-156 140 -158 14 -2 33 10 58 38 48 52 104 132 104 146 0 22 -41 45 -235 134
-110 50 -220 102 -244 116 -46 26 -51 27 -51 18z"/>
<path d="M1090 803 c0 -7 9 -50 19 -95 11 -46 36 -161 56 -256 39 -187 50
-222 73 -222 24 0 203 91 209 107 9 24 -9 51 -164 238 -81 99 -158 194 -170
210 -12 17 -23 25 -23 18z"/>
<path d="M860 753 c-19 -26 -80 -102 -135 -168 -148 -178 -176 -217 -173 -239
2 -15 30 -34 98 -68 52 -26 102 -48 111 -48 24 0 35 34 79 247 23 109 48 223
56 254 8 31 14 60 14 63 0 16 -18 1 -50 -41z"/>
<path d="M986 747 c-4 -23 -32 -144 -62 -269 -31 -125 -54 -237 -52 -250 3
-23 5 -23 128 -23 l125 0 3 25 c2 14 -24 135 -58 270 -33 135 -60 253 -60 262
0 36 -18 25 -24 -15z"/>
</g>
</svg>
