<?xml version="1.0" standalone="no"?>
<!DOCTYPE svg PUBLIC "-//W3C//DTD SVG 20010904//EN"
 "http://www.w3.org/TR/2001/REC-SVG-20010904/DTD/svg10.dtd">
<svg version="1.0" xmlns="http://www.w3.org/2000/svg"
 width="200.000000pt" height="200.000000pt" viewBox="0 0 200.000000 200.000000"
 preserveAspectRatio="xMidYMid meet">

<g transform="translate(0.000000,200.000000) scale(0.100000,-0.100000)"
fill="#000000" stroke="none">
<path d="M915 1859 c-44 -39 -80 -76 -80 -82 0 -5 36 -22 80 -37 77 -26 79
-27 55 -40 -34 -18 -41 -30 -34 -64 9 -44 53 -136 64 -136 11 0 55 92 64 136
7 34 0 46 -34 64 -24 13 -22 14 55 40 44 15 80 31 80 36 0 10 -155 154 -165
154 -3 0 -41 -32 -85 -71z"/>
<path d="M581 1812 c-16 -31 -71 -172 -71 -183 0 -11 69 -7 145 8 29 5 30 5
13 -14 -33 -36 -23 -67 39 -122 80 -72 87 -69 80 29 -3 45 -11 87 -17 95 -7 8
-27 15 -45 15 l-34 0 60 57 c32 31 59 62 59 69 0 7 -17 18 -37 23 -21 6 -60
17 -88 26 -66 20 -92 19 -104 -3z"/>
<path d="M1277 1805 c-42 -13 -82 -27 -88 -31 -7 -4 14 -31 52 -70 l63 -64
-31 0 c-44 0 -54 -19 -60 -110 -7 -99 2 -102 81 -27 60 57 69 85 39 120 -18
19 -17 19 12 14 86 -17 145 -19 145 -6 -1 8 -17 55 -38 104 -34 84 -39 90 -67
92 -17 1 -65 -9 -108 -22z"/>
<path d="M430 1609 c-30 -5 -79 -14 -109 -20 l-54 -11 6 -119 6 -119 -90 -61
c-49 -34 -92 -65 -95 -70 -6 -10 95 -209 107 -209 4 0 27 33 52 72 44 71 46
72 52 45 11 -41 42 -49 125 -33 39 7 74 16 78 20 12 13 -119 106 -149 106 -10
0 -27 -11 -38 -25 l-19 -26 -7 58 c-3 32 -8 72 -11 89 -4 30 -1 34 75 82 75
47 79 49 70 25 -16 -42 9 -68 84 -88 98 -26 104 -22 67 51 -41 83 -62 101
-101 87 -16 -6 -29 -7 -29 -3 0 5 11 40 25 78 27 76 29 83 18 81 -5 -1 -33 -5
-63 -10z"/>
<path d="M1500 1614 c0 -4 11 -38 25 -76 14 -38 25 -73 25 -78 0 -4 -13 -3
-29 3 -39 14 -60 -4 -101 -87 -37 -73 -31 -77 67 -51 75 20 100 46 84 88 -9
24 -4 22 70 -25 72 -46 80 -53 75 -77 -3 -14 -8 -54 -11 -89 l-7 -62 -20 25
c-11 14 -27 25 -37 25 -17 0 -84 -40 -131 -79 -32 -27 -21 -35 71 -50 80 -13
103 -6 114 36 6 27 8 25 52 -45 25 -39 48 -72 52 -72 11 0 113 199 107 209 -3
5 -46 36 -95 70 l-90 61 6 119 6 119 -54 11 c-30 5 -72 13 -94 16 -22 3 -50 8
-62 11 -13 2 -23 1 -23 -2z"/>
<path d="M142 890 c-30 -55 -51 -104 -47 -110 3 -5 45 -37 93 -70 100 -70 95
-72 107 52 l7 67 22 -26 c17 -20 28 -25 47 -20 28 7 139 84 139 96 0 13 -82
31 -139 31 -48 0 -52 -2 -64 -32 l-13 -31 -43 71 c-24 40 -46 72 -50 72 -4 0
-30 -45 -59 -100z"/>
<path d="M1749 919 l-43 -72 -13 31 c-12 30 -16 32 -64 32 -57 0 -139 -18
-139 -31 0 -12 111 -89 139 -96 19 -5 30 0 47 20 l22 26 7 -67 c12 -124 7
-122 107 -52 48 33 90 65 93 70 7 11 -81 184 -101 201 -8 7 -24 -11 -55 -62z"/>
<path d="M540 674 c-108 -35 -128 -53 -110 -99 10 -25 9 -25 -48 11 -31 20
-65 42 -74 48 -9 5 -20 7 -24 4 -3 -4 -9 -56 -12 -116 -6 -127 -18 -113 126
-136 96 -16 112 -21 112 -36 0 -10 76 -189 83 -196 4 -5 205 51 213 59 10 10
-15 44 -68 92 -50 45 -52 47 -22 41 48 -11 65 16 71 113 7 100 -2 103 -81 28
-60 -57 -69 -85 -38 -120 17 -19 16 -20 -18 -14 -19 3 -60 9 -91 12 l-56 7
-27 76 c-29 85 -32 102 -14 84 19 -19 53 -14 75 11 19 20 73 118 73 132 0 6
-49 5 -70 -1z"/>
<path d="M1390 676 c0 -17 60 -123 79 -141 19 -16 27 -17 52 -8 16 6 29 7 29
3 0 -5 -12 -41 -26 -80 -14 -40 -24 -74 -22 -76 5 -4 115 12 182 27 l49 12 -6
110 c-4 60 -9 113 -12 116 -3 3 -14 0 -23 -5 -9 -6 -43 -28 -74 -48 -57 -36
-58 -36 -48 -11 14 36 -1 59 -51 79 -45 18 -129 33 -129 22z"/>
<path d="M1213 459 c6 -97 23 -124 71 -113 28 6 26 3 -27 -46 -92 -84 -92 -83
21 -114 53 -15 104 -30 113 -32 13 -4 25 16 53 82 20 48 39 98 43 112 6 27 12
27 -132 6 -39 -6 -40 -6 -22 13 31 35 21 63 -40 120 -80 74 -87 72 -80 -28z"/>
<path d="M971 443 c-48 -98 -49 -136 -3 -155 26 -10 23 -12 -53 -38 -44 -14
-80 -32 -80 -38 0 -11 153 -152 165 -152 12 0 165 141 165 152 0 6 -36 23 -80
38 -65 22 -76 28 -57 34 28 9 45 40 37 69 -9 34 -58 137 -65 137 -3 0 -16 -21
-29 -47z"/>
</g>
</svg>
